<?xml version="1.0" encoding="UTF-8"?>
<level>
  <owner>Fistachka</owner>
  <repo>umka2</repo>
  <version>v1.0.5</version>
  <next number="1" owner="Fistachka" repo="funtik"/>
  <readme>
    <ru>4e26b3f598f78db2372fca91d00bcc3d0041385b1d6bce1c5668f405b4d81258</ru>
    <en>d37569f795877f5b8abfea44a564b97b45f51b5095fd44248fa9443fbc0a5025</en>
  </readme>
  <license>b1b99f5538d1fd3702219bff50c665196dfa42f6ee755c37fe41a6178d6bc6e5</license>
  <exercise number="1">
    <scale>major</scale>
    <bpm>64</bpm>
    <lowestNote>38</lowestNote>
    <tonalities>4</tonalities>
    <video name="7t.mp4" size="658521" type="video/mp4" volume="0.5">3fb429d014e9ddea74f228a40b2243cb72aaa6361cc5da50108e3dd8f496ad70</video>
    <notes>
      <note number="1" values="58" ticks="324" durationTicks="49" ppq="96" velocity="0.843"/>
      <note number="2" values="68" ticks="373" durationTicks="40" ppq="96" velocity="0.913"/>
      <note number="3" values="68" ticks="420" durationTicks="49" ppq="96" velocity="0.834"/>
      <note number="4" values="58" ticks="481" durationTicks="42" ppq="96" velocity="0.913"/>
      <note number="5" values="68" ticks="528" durationTicks="47" ppq="96" velocity="0.913"/>
      <note number="6" values="58" ticks="576" durationTicks="95" ppq="96" velocity="0.913"/>
    </notes>
  </exercise>
  <exercise number="2">
    <scale>major</scale>
    <bpm>64</bpm>
    <lowestNote>38</lowestNote>
    <tonalities>4</tonalities>
    <video name="8t.mp4" size="785884" type="video/mp4" volume="0.5">fccc6746051cbf2d8b56112e174875b2f8b86230b6caec929749e5a187640ea5</video>
    <notes>
      <note number="1" values="58" ticks="72" durationTicks="48" ppq="96" velocity="0.843"/>
      <note number="2" values="68" ticks="157" durationTicks="31" ppq="96" velocity="0.906"/>
      <note number="3" values="68" ticks="193" durationTicks="53" ppq="96" velocity="0.906"/>
      <note number="4" values="58" ticks="248" durationTicks="45" ppq="96" velocity="0.906"/>
      <note number="5" values="68" ticks="291" durationTicks="52" ppq="96" velocity="0.906"/>
      <note number="6" values="58" ticks="345" durationTicks="78" ppq="96" velocity="0.906"/>
    </notes>
  </exercise>
  <exercise number="3">
    <scale>major</scale>
    <bpm>64</bpm>
    <lowestNote>38</lowestNote>
    <tonalities>4</tonalities>
    <video name="9t.mp4" size="1198972" type="video/mp4" volume="0.5">4da87560a923b0d5bcf81ae0521fa11ba9a1a07f81a09c3724e36ad0f0593ddf</video>
    <notes>
      <note number="1" values="58" ticks="75" durationTicks="51" ppq="96" velocity="0.843"/>
      <note number="2" values="68" ticks="125" durationTicks="41" ppq="96" velocity="0.906"/>
      <note number="3" values="68" ticks="172" durationTicks="47" ppq="96" velocity="0.906"/>
      <note number="4" values="58" ticks="220" durationTicks="49" ppq="96" velocity="0.906"/>
      <note number="5" values="68" ticks="268" durationTicks="49" ppq="96" velocity="0.906"/>
      <note number="6" values="58" ticks="317" durationTicks="71" ppq="96" velocity="0.906"/>
      <note number="7" values="68" ticks="386" durationTicks="72" ppq="96" velocity="0.906"/>
      <note number="8" values="388" ticks="433" durationTicks="157" ppq="96" velocity="0.906"/>
    </notes>
  </exercise>
  <exercise number="4">
    <scale>major</scale>
    <bpm>64</bpm>
    <lowestNote>38</lowestNote>
    <tonalities>4</tonalities>
    <video name="10t.mp4" size="638903" type="video/mp4" volume="0.5">edab2415dd87bdad7d1eb44135f9d0cbbb269485ad06cf8f28779f748b25fb95</video>
    <notes>
      <note number="1" values="288" ticks="19" durationTicks="47" ppq="96" velocity="0.843"/>
      <note number="2" values="388" ticks="90" durationTicks="41" ppq="96" velocity="0.906"/>
      <note number="3" values="388" ticks="138" durationTicks="50" ppq="96" velocity="0.906"/>
      <note number="4" values="288" ticks="187" durationTicks="29" ppq="96" velocity="0.906"/>
      <note number="5" values="388" ticks="211" durationTicks="84" ppq="96" velocity="0.906"/>
      <note number="6" values="288" ticks="268" durationTicks="95" ppq="96" velocity="0.906"/>
    </notes>
  </exercise>
  <exercise number="5">
    <scale>major</scale>
    <bpm>64</bpm>
    <lowestNote>38</lowestNote>
    <tonalities>4</tonalities>
    <video name="11t.mp4" size="197127" type="video/mp4" volume="0.5">5dbe33825a05470cc14b1afc67b21dd3ec34054353f8080ab33f545f52c25f2a</video>
    <notes>
      <note number="1" values="78" ticks="52" durationTicks="51" ppq="96" velocity="0.843"/>
      <note number="2" values="288" ticks="102" durationTicks="41" ppq="96" velocity="0.906"/>
      <note number="3" values="288" ticks="150" durationTicks="49" ppq="96" velocity="0.906"/>
      <note number="4" values="188" ticks="211" durationTicks="39" ppq="96" velocity="0.906"/>
      <note number="5" values="288" ticks="252" durationTicks="56" ppq="96" velocity="0.906"/>
      <note number="6" values="188" ticks="306" durationTicks="111" ppq="96" velocity="0.906"/>
    </notes>
  </exercise>
  <exercise number="6">
    <scale>major</scale>
    <bpm>64</bpm>
    <lowestNote>38</lowestNote>
    <tonalities>4</tonalities>
    <video name="12t.mp4" size="576095" type="video/mp4" volume="0.5">f67980ec210cca993f7f69e367ddb7523eb274ca0cce9ec0045e5d0d4495173a</video>
    <notes>
      <note number="1" values="78" ticks="34" durationTicks="51" ppq="96" velocity="0.843"/>
      <note number="2" values="68" ticks="96" durationTicks="49" ppq="96" velocity="0.906"/>
      <note number="3" values="188" ticks="144" durationTicks="119" ppq="96" velocity="0.906"/>
      <note number="4" values="68" ticks="270" durationTicks="73" ppq="96" velocity="0.906"/>
      <note number="5" values="78" ticks="335" durationTicks="176" ppq="96" velocity="0.906"/>
      <note number="6" values="58" ticks="530" durationTicks="81" ppq="96" velocity="0.906"/>
      <note number="7" values="68" ticks="595" durationTicks="181" ppq="96" velocity="0.906"/>
    </notes>
  </exercise>
  <exercise number="7">
    <scale>major</scale>
    <bpm>64</bpm>
    <lowestNote>38</lowestNote>
    <tonalities>4</tonalities>
    <video name="12t.mp4" size="576095" type="video/mp4" volume="0.5">f67980ec210cca993f7f69e367ddb7523eb274ca0cce9ec0045e5d0d4495173a</video>
    <notes>
      <note number="1" values="78" ticks="34" durationTicks="51" ppq="96" velocity="0.843"/>
      <note number="2" values="68" ticks="96" durationTicks="49" ppq="96" velocity="0.906"/>
      <note number="3" values="188" ticks="144" durationTicks="119" ppq="96" velocity="0.906"/>
      <note number="4" values="68" ticks="270" durationTicks="73" ppq="96" velocity="0.906"/>
      <note number="5" values="78" ticks="335" durationTicks="176" ppq="96" velocity="0.906"/>
      <note number="6" values="58" ticks="530" durationTicks="81" ppq="96" velocity="0.906"/>
      <note number="7" values="68" ticks="595" durationTicks="181" ppq="96" velocity="0.906"/>
    </notes>
  </exercise>
</level>
